<svg class="svg-icon" style="width: 1em; height: 1em;vertical-align: middle;fill: currentColor;overflow: hidden;" viewBox="0 0 1024 1024" version="1.1" xmlns="http://www.w3.org/2000/svg"><path d="M648.533333 413.013333v116.053334c37.546667-6.826667 68.266667-30.72 68.266667-58.026667 0-34.133333-34.133333-51.2-68.266667-58.026667zM546.133333 317.44c0 34.133333 34.133333 47.786667 68.266667 54.613333V256c-37.546667 6.826667-68.266667 30.72-68.266667 61.44z" fill="" /><path d="M631.466667 34.133333C433.493333 34.133333 273.066667 194.56 273.066667 392.533333c0 170.666667 119.466667 314.026667 279.893333 348.16l78.506667-78.506666c20.48-20.48 54.613333-20.48 71.68 0l61.44 61.44c133.12-51.2 225.28-180.906667 225.28-334.506667C989.866667 194.56 829.44 34.133333 631.466667 34.133333z m17.066666 529.066667c0 10.24-6.826667 17.066667-17.066666 17.066667s-17.066667-6.826667-17.066667-17.066667c-54.613333-6.826667-98.986667-40.96-102.4-85.333333 0-10.24 6.826667-17.066667 17.066667-17.066667s17.066667 6.826667 17.066666 17.066667c3.413333 27.306667 30.72 51.2 68.266667 54.613333V409.6c-68.266667-13.653333-102.4-44.373333-102.4-92.16 0-47.786667 44.373333-85.333333 102.4-92.16 0-13.653333 6.826667-20.48 17.066667-20.48s17.066667 6.826667 17.066666 17.066667c54.613333 6.826667 98.986667 40.96 102.4 85.333333 0 10.24-6.826667 17.066667-17.066666 17.066667S716.8 317.44 716.8 307.2c-3.413333-27.306667-30.72-51.2-68.266667-54.613333V375.466667c68.266667 13.653333 102.4 44.373333 102.4 92.16 0 47.786667-44.373333 88.746667-102.4 95.573333z" fill="" /><path d="M945.493333 699.733333c-6.826667-3.413333-13.653333 0-17.066666 3.413334l-112.64 119.466666-136.533334-136.533333c-6.826667-6.826667-17.066667-6.826667-23.893333 0l-160.426667 160.426667L61.44 447.146667c-6.826667-6.826667-17.066667-6.826667-23.893333 0-6.826667 6.826667-6.826667 17.066667 0 23.893333l443.733333 409.6c3.413333 3.413333 6.826667 3.413333 10.24 3.413333 3.413333 0 10.24 0 13.653333-3.413333l157.013334-157.013333 122.88 122.88-105.813334 112.64c3.413333 6.826667 3.413333 13.653333 3.413334 20.48 3.413333 6.826667 10.24 10.24 17.066666 10.24h238.933334c10.24 0 17.066667-6.826667 17.066666-17.066667V716.8c0-6.826667-3.413333-13.653333-10.24-17.066667z" fill="" /></svg>